<svg width="2024" height="1878" viewBox="0 0 2024 1878" fill="none" xmlns="http://www.w3.org/2000/svg">
<g id="avatar-outline">
<path id="avatar-root" d="M0 938.667V1877.33H6.66667C14.1333 1877.33 13.4667 1878.53 16.1333 1861.33C29.6 1773.33 70.5333 1600.4 87.6 1559.33C94.9333 1541.87 107.2 1525.73 120 1516.93C130.533 1509.6 206.133 1474.67 239.333 1461.73C287.867 1442.8 301.467 1437.47 334.533 1423.87C354 1415.87 371.067 1408.67 372.4 1408C376 1405.87 427.467 1384 541.333 1336.13C584.133 1318 586.267 1316.93 592.667 1310.4C596.4 1306.53 607.733 1295.6 617.867 1286.13C628.133 1276.53 646.8 1256.93 659.333 1242.67C685.067 1213.47 696.933 1201.33 707.2 1193.87C714.267 1188.67 714.267 1188.67 717.6 1175.33C719.467 1168 722.4 1159.07 724.133 1155.33C727.2 1148.93 736.933 1137.6 741.6 1135.2C743.733 1134 743.733 1131.2 741.733 1088C740 1048 739.333 1041.47 737.2 1038C718 1006.8 704.8 958.933 695.6 886.533C694 874 693.6 872.667 691.2 873.2C689.867 873.467 685.2 873.733 681.067 873.733C670.533 873.733 658.4 867.733 650 858.4C632.267 838.667 611.2 774.667 590.533 678C586.4 658.8 586 624.933 589.733 613.333C596.533 592.133 609.067 583.6 628.4 587.2C631.067 587.733 633.333 587.6 633.333 586.933C633.333 586.4 631.2 576.533 628.667 565.2C617.467 516.4 612.933 471.6 615.6 434C616.4 422.933 616.8 413.733 616.4 413.333C616.133 412.933 615.2 413.6 614.667 414.667C611.6 419.6 610.8 420.4 608.933 419.6C606 418.533 604.667 390.533 606.533 368.667C609.2 336.533 615.733 312.4 628.8 286.133C631.333 281.067 633.2 276.667 632.8 276.4C632.533 276.133 628.267 279.867 623.467 284.667C616.4 291.733 614.133 293.2 612.8 292.133C611.2 290.8 611.2 289.467 612.667 284.267C624.533 241.6 651.2 203.867 690 175.333C693.733 172.533 694.667 172.133 693.333 174C690.4 177.867 676.4 194.133 668.667 202.667C665.067 206.667 660.533 212 658.667 214.533C656.8 217.067 654.133 220.667 652.533 222.533C648 228.133 637.6 244.8 634.8 250.933C629.333 262.933 625.333 272.4 625.333 272.933C625.333 273.333 627.333 272.133 629.733 270.4C638.667 263.467 652 257.733 652 260.8C652 261.2 649.067 266.533 645.333 272.8C641.733 279.067 638.667 284.4 638.667 284.667C638.667 285.067 636.933 288.933 634.667 293.467C622.267 319.067 614.667 355.2 614.667 388.533V404.533L619.733 399.6C626.533 392.933 628.667 393.067 627.467 400.267C625.6 411.2 624 436.8 624 455.333C624 494.667 628.133 524.667 641.467 579.867C644.933 594.4 646 597.067 650.667 602.267C653.467 605.6 656.8 611.067 657.867 614.4C660.267 621.733 668.4 661.867 671.067 680C672.267 688.4 673.2 691.6 673.733 689.333C675.333 682.4 680.133 624.533 682 589.333C683.867 554.4 684.667 545.333 686.267 539.333C686.667 537.467 684.667 538.8 679.867 543.333C675.867 547.067 670.933 551.6 668.667 553.333L664.667 556.667L668.8 552C671.067 549.467 674.267 545.867 675.867 544C681.067 538.267 688.667 526.533 695.6 513.333C699.2 506.4 702.933 499.467 703.733 498C711.2 484.933 714.667 472.133 714.667 458.267C714.667 448 714 448.667 703.867 468.267C695.6 484.4 694.4 484.8 698.667 470C701.733 459.467 704.267 453.467 708.933 446.667C711.6 442.667 712 440.4 712 429.733C712 422.933 711.6 417.333 711.067 417.333C710.4 417.333 703.733 426.667 696.133 438C688.4 449.333 682 458.667 681.733 458.667C681.067 458.667 685.2 448.267 688 442.533C692.267 434.267 703.2 418.667 708 414C711.867 410.4 712 409.6 712 399.2C712 388.533 714.4 373.867 717.333 366.133C718.133 364 718.4 362 718 361.6C716.8 360.4 679.333 398.267 671.467 408.667C662.4 420.533 657.333 429.867 652.533 443.333C647.6 457.2 646.8 452.8 651.333 436.933C659.2 409.333 670.933 393.333 701.2 368.8C714.4 358.133 724 347.867 724 344.667C724 344.267 725.467 341.6 727.333 338.667C729.2 335.733 730.4 333.333 730 333.333C729.467 333.333 725.6 335.733 721.2 338.8C704.8 349.867 680.4 358.933 661.467 360.8C648.4 362 648.133 359.467 661.067 356.667C686.667 350.933 713.333 336.933 752 308.667C758.933 303.6 768.667 297.467 773.6 295.067C784.4 289.733 800.667 285.333 809.6 285.333C813.067 285.333 816 284.8 816 284.133C816 282.4 798.533 276.533 785.333 273.733C770.133 270.667 746.8 270.8 732 274C725.733 275.333 720.133 276.8 719.333 277.333C718.667 277.867 715.6 279.067 712.667 280C694.933 285.6 676.133 299.333 659.467 318.933C654.933 324.267 654.667 324.267 656 320.533C658.267 314 670.933 298.533 680.8 290.267C691.6 281.067 709.6 272 724.667 267.867C733.2 265.467 739.2 264.933 754.667 264.8C778.533 264.667 790 267.333 815.333 278.667C831.2 285.733 854.8 292.4 856.8 290.267C857.2 289.867 853.733 287.333 849.2 284.533C844.533 281.733 835.467 274.933 828.933 269.467C796.133 241.6 787.2 235.467 770.8 230C758.133 225.733 739.067 223.867 723.867 225.467C717.2 226.133 711.2 226.933 710.667 227.333C710 227.733 709.2 227.467 708.8 226.8C706.933 223.733 728.933 219.733 747.333 219.867C757.733 219.867 763.333 220.533 772.667 223.333C792 228.933 801.467 235.467 830.133 262.267C849.333 280.133 858.8 288 866.267 291.733C871.867 294.667 922.267 311.333 940 316.133C972.667 325.067 989.2 326.933 1006 323.467C1019.07 320.8 1031.2 315.2 1038.27 308.8C1041.2 306.133 1044 304 1044.53 304C1044.93 304 1045.33 305.6 1045.33 307.6C1045.33 313.067 1034 322.933 1022.93 327.2C1010.13 332 1003.6 333.2 990 333.333C968.133 333.333 956.933 330.667 887.067 308.8C841.067 294.533 816.133 290.667 798.533 295.2C780.933 299.867 763.867 308.933 751.867 320.133C727.867 342.667 715.733 384.533 720 430C724.133 474 724 475.467 709.2 505.2C693.6 536.533 693.6 536.8 691.333 580C690.267 600.133 688.4 627.2 687.2 640C686.133 652.8 684.267 672.933 683.333 684.667C680.133 719.867 680.667 736.533 686 769.333C688.667 785.067 695.2 826.533 700.667 861.333C714 945.867 716.533 959.2 723.6 984C728.4 1000.8 739.867 1026.13 748 1037.6C750.267 1040.67 753.067 1044.8 754.267 1046.67C768.4 1067.6 822.533 1124.67 857.467 1155.47C902.533 1195.07 925.6 1206.27 973.067 1211.2C1029.6 1217.07 1081.07 1209.87 1111.2 1191.73C1141.47 1173.6 1198.53 1121.2 1241.33 1072.53C1257.73 1053.87 1271.87 1033.6 1279.33 1018.13C1295.07 985.467 1300.93 959.467 1318.13 848C1322.27 821.2 1326.13 796.267 1326.67 792.667C1327.33 788.933 1329.47 776.133 1331.47 764C1334.53 745.6 1335.07 738.267 1334.93 719.333C1334.8 706.8 1334.13 691.2 1333.33 684.667C1328.67 642.267 1325.87 605.6 1324.67 573.333C1323.6 542.267 1321.6 534.667 1307.2 506C1293.07 477.467 1292.4 474.533 1294.8 446C1300.27 382.267 1292.8 351.333 1263.47 317.067C1254.93 307.067 1252.53 301.467 1256.13 299.333C1256.8 298.8 1262.13 303.467 1267.73 309.6C1281.07 324 1283.2 326.133 1291.87 333.333C1312.4 350.267 1314.4 352.267 1327.33 368.133C1337.87 381.067 1346.53 396.8 1352 412.667C1355.07 421.6 1355.07 421.333 1353.6 421.333C1353.07 421.333 1351.87 419.333 1350.93 416.933C1348.13 409.333 1337.87 392.933 1328.13 380.667C1319.07 369.333 1293.33 342.267 1292.4 343.2C1292.13 343.333 1293.2 346.267 1294.53 349.467C1296 352.8 1298.8 361.733 1300.67 369.467C1304.53 384.533 1305.73 388 1310.13 394C1314.13 399.467 1325.33 419.067 1329.2 427.333C1335.2 440 1343.47 466.667 1341.33 466.667C1340.8 466.667 1339.87 465.067 1339.47 463.2C1338.13 458.133 1328.4 438.267 1317.33 418C1312.13 408.4 1307.47 399.6 1307.07 398.267C1305.33 392.667 1304.67 397.2 1304.8 415.067C1304.93 433.333 1305.47 436 1310 446C1313.73 454 1318.53 468 1317.6 468C1317.07 468 1313.6 463.2 1310 457.333C1306.4 451.467 1302.8 446.667 1302.13 446.667C1300.4 446.667 1302.53 472.4 1304.93 480.533C1307.2 488 1319.2 511.733 1325.73 521.2C1329.6 527.067 1337.2 537.2 1338.67 538.667C1340.4 540.4 1351.87 555.733 1354.13 559.333C1355.47 561.467 1351.07 557.6 1344.27 550.8C1337.6 543.867 1331.73 538.4 1331.47 538.8C1331.07 539.2 1331.33 545.067 1332 552C1332.67 558.933 1333.87 578.8 1334.67 596C1335.73 622.133 1341.87 690.267 1343.07 691.467C1343.2 691.733 1344.8 683.6 1346.53 673.6C1351.87 642.133 1357.07 617.733 1359.73 611.733C1361.07 608.533 1364.4 603.333 1367.07 600.267C1369.87 597.067 1372 594.133 1372 593.733C1372 593.467 1374.4 582.533 1377.47 569.6C1388.8 520.4 1392 497.067 1392 462C1392 442 1389.47 405.2 1387.07 390.267C1386.4 385.733 1386.53 385.067 1388.8 385.6C1390.13 385.867 1393.47 389.2 1396.27 393.2C1400.27 398.933 1401.47 399.867 1402.13 398C1402.67 396.8 1402.67 385.2 1402.27 372.133C1401.33 344.133 1397.87 322 1391.6 305.6C1387.47 294.667 1376 274.533 1366.53 261.733C1364.13 258.667 1362.8 255.6 1363.33 254.667C1364.53 252.8 1373.87 261.467 1380.93 271.067C1383.47 274.533 1385.87 277.2 1386.13 276.933C1386.4 276.667 1385.47 271.867 1384 266.133C1379.6 248.667 1367.87 226.267 1355.47 211.867C1351.47 207.2 1336.67 194.4 1331.33 190.933C1323.33 185.867 1308.13 179.867 1300.4 178.667C1290.27 177.333 1288.53 176.133 1287.47 170C1286.27 163.867 1278.13 144 1273.73 136.133C1263.73 118.933 1248.8 103.6 1228.4 90.1334C1215.07 81.3334 1193.33 68.9334 1193.33 70.2667C1193.33 70.5334 1194.8 73.4667 1196.67 76.5334C1200 82.4 1205.33 96.2667 1205.33 99.6C1205.33 103.2 1201.73 101.067 1193.33 92.5334C1183.6 82.8 1165.73 68.9334 1150.67 59.6C1120.53 41.0667 1077.47 27.4667 1050 27.8667C1036.67 28 1025.87 25.8667 1024.67 22.9334C1024.27 21.8667 1024.27 20.5334 1024.8 20.1334C1025.2 19.7334 1034.93 19.3334 1046.4 19.4667C1070 19.6 1082.53 21.7334 1107.33 30C1132.8 38.5334 1159.87 53.3334 1181.33 70.4L1185.87 74L1181.33 67.6C1178.8 64 1176.27 60.8 1175.73 60.5334C1175.07 60.1334 1174.67 58.4 1174.67 56.5334C1174.67 51.4667 1178.4 52.4 1197.07 61.8667C1238.93 83.2 1260.53 100.267 1276.93 125.067C1284 135.867 1296 161.867 1296 166.8C1296 168.4 1298.67 169.467 1306 171.067C1336.8 177.867 1364.93 202.267 1382.67 237.333C1389.6 251.333 1392.8 262 1396 281.867C1397.6 291.333 1399.73 301.733 1400.93 305.067C1408.4 327.2 1411.2 348.4 1411.33 382.667C1411.33 398.4 1410.93 412.933 1410.27 414.933C1408.8 420.267 1403.6 420.133 1401.33 414.667C1399.73 410.667 1396.4 408.8 1397.87 412.667C1400.13 418.667 1401.6 448.133 1400.93 471.333C1399.73 506.933 1396.53 528.933 1386.53 570.133C1384.4 579.067 1382.67 586.667 1382.67 587.067C1382.67 587.467 1387.33 587.467 1393.07 587.067C1405.2 586.133 1411.73 588.667 1418.4 596.8C1426.13 606.133 1428.27 614.4 1428.93 636.667C1429.6 657.6 1427.47 674.8 1421.33 698.133C1419.87 703.333 1417.2 714.667 1415.33 723.333C1413.47 732 1409.07 749.333 1405.47 761.867C1390.27 814.4 1379.07 842.933 1368.4 856.133C1358.13 868.667 1343.47 875.467 1329.87 873.867L1323.07 873.067L1322.13 880.133C1319.2 902.533 1309.73 955.067 1306 970C1299.33 996.133 1291.33 1017.07 1282.27 1032.53L1276.93 1041.87L1274.93 1087.6L1272.8 1133.33L1280.4 1140.13C1289.33 1148.13 1294.27 1157.73 1298.53 1175.47L1301.47 1187.47L1314.53 1198.27C1327.47 1209.07 1341.33 1223.47 1360.27 1246C1372.93 1261.2 1384.53 1273.07 1411.07 1298L1432.27 1317.87L1452.4 1326.4C1463.6 1331.07 1482 1338.8 1493.33 1343.6C1504.67 1348.4 1524.27 1356.67 1536.67 1362C1549.2 1367.33 1573.2 1377.47 1590 1384.67C1606.93 1391.87 1633.33 1403.07 1648.67 1409.6C1679.87 1422.93 1742.4 1448.4 1768 1458.13C1806 1472.53 1881.33 1507.07 1896.67 1517.2C1914 1528.67 1926.4 1548.4 1937.2 1581.6C1952.8 1629.73 1987.6 1782 1999.47 1854.27L2003.33 1877.33H2013.6H2024V938.667V4.04349e-05H1012H0V938.667ZM1006.67 26.6667C1046.13 32.5334 1066.67 38.9334 1076.53 48.5334C1083.47 55.3334 1081.2 56 1068.53 51.3334C1056.13 46.5334 1028.93 39.4667 1013.33 36.8C968.133 29.2 917.333 31.2 876.267 42.1334C858.4 46.8 858.4 46.8 867.333 48.8C882.133 52.1334 890.533 55.0667 893.6 57.8667L896.667 60.6667L887.333 61.4667C851.733 64.8 843.733 65.8667 827.467 70C817.467 72.5334 803.467 76.9334 796.4 79.7334C774.533 88.5334 768.933 92 776.4 92C779.467 92 793.2 96.2667 796.133 98C798.8 99.7334 794.667 102.267 786.267 104C753.067 110.667 716.667 129.867 696 151.6C686.267 161.867 680.667 169.2 683.6 167.733C684.133 167.467 690 164.667 696.4 161.467C708.933 155.2 713.6 154.8 703.067 160.8C690.8 167.867 680.667 175.067 674.267 181.2C669.067 186.267 667.6 187.067 665.6 185.733C662.533 183.733 663.333 180.8 669.733 170.667C679.733 155.2 695.733 138.4 712.667 125.867C729.067 113.733 757.733 101.733 779.333 98C784.4 97.0667 784.533 96.9334 781.333 95.7334C779.467 95.0667 774.667 94.1334 770.667 93.6C764 92.8 763.333 92.4 763.333 89.3334C763.333 86.6667 765.067 85.0667 771.733 81.2C776.4 78.5334 784.8 74.6667 790.4 72.6667C796 70.6667 802.533 68.2667 804.667 67.3334C810.933 64.5334 841.733 57.3334 847.467 57.2C850.267 57.2 853.867 56.6667 855.333 56.1334C857.467 55.2 857.2 54.9334 853.467 54.2667C850.933 53.7334 846.8 53.3334 844.133 53.3334C841.333 53.3334 838 52.5334 836.533 51.4667C831.867 48 835.733 45.0667 852.133 39.6C874 32.2667 905.6 25.8667 932 23.4667C946 22.2667 989.333 24 1006.67 26.6667ZM1016.13 75.2C1072.53 86.4 1118.27 130.267 1131.47 186.267C1135.07 201.6 1137.33 232.267 1135.07 233.733C1134.27 234.267 1133.33 231.2 1132.8 225.6C1126.67 164.8 1094.8 116.8 1043.87 91.7334C1024.93 82.4 1013.2 78.9334 982.667 73.4667C976.4 72.2667 977.6 72.2667 990.667 72.6667C999.067 72.9334 1010.53 74.1334 1016.13 75.2ZM939.467 92.5334C951.6 108.8 971.733 124.8 1001.07 141.333C1018.53 151.2 1032.27 161.733 1044.53 174.8C1063.33 194.8 1072.67 212.8 1078.13 240C1080.67 253.067 1080.13 273.333 1076.8 282C1074.8 287.333 1074.8 287.333 1074.8 273.2C1074.67 249.067 1069.47 227.6 1059.33 208.4C1046.13 183.467 1029.47 167.467 996 147.333C964.667 128.667 943.733 110 934.667 93.0667C930.4 85.0667 926.533 74 929.733 79.2C930.667 80.5334 934.933 86.5334 939.467 92.5334ZM1150.13 104.4C1181.07 127.2 1205.6 157.6 1215.87 185.6C1220.93 199.067 1222.67 209.2 1222.8 222.933C1222.8 234.133 1222.13 238.533 1219.33 247.2C1215.2 260 1210.93 269.067 1204.67 278.4C1202.13 282.4 1200 285.733 1200 286.133C1200 286.4 1201.6 286 1203.47 285.333C1205.33 284.533 1212.27 284 1218.8 284C1228 284 1230.67 284.4 1230.67 285.867C1230.67 287.6 1225.33 288.933 1208.4 291.333C1202.67 292.267 1197.33 290.4 1197.33 287.733C1197.33 286.933 1200.4 280.133 1204 272.8C1213.33 253.867 1216 243.867 1216 226.667C1216 205.467 1211.2 189.067 1198.67 167.2C1189.07 150.4 1178.27 136.933 1158.67 116.933C1148.67 106.933 1140.93 98.6667 1141.47 98.6667C1142 98.6667 1145.87 101.2 1150.13 104.4ZM893.467 115.867C905.467 118.933 921.2 125.333 927.733 129.733C930.533 131.467 934.4 134 936.4 135.2C943.2 139.333 939.333 138.8 925.2 133.467C893.067 121.333 874.267 118 844 118.933C833.733 119.2 826 119.067 826.933 118.533C827.867 117.867 834 116.533 840.667 115.467C847.2 114.267 854.133 113.067 856 112.8C862.533 111.6 883.867 113.467 893.467 115.867ZM1299.87 134.267C1302.13 144.8 1302.8 154.933 1301.47 162C1300.27 168.533 1300.27 168.533 1300.13 157.867C1300 148.133 1298.53 136.533 1296.53 130.267C1296.13 129.067 1296.4 128 1297.07 128C1297.87 128 1299.07 130.8 1299.87 134.267ZM800 156.133C832 166.267 850 182.667 874.533 224.4C900 267.867 924.8 291.733 957.867 304.533C962.267 306.267 969.333 309.067 973.333 310.533L980.667 313.467L974 312.533C965.467 311.467 947.867 306 939.333 301.6C920 291.867 899.733 274.667 880.933 251.733C860 226.267 830.533 206.933 800.667 199.2C789.067 196.133 783.733 195.6 760 194.933C744.8 194.667 733.867 193.867 735.467 193.333C736.933 192.667 746 191.467 755.6 190.533C794.267 186.8 831.2 196.667 856 217.467C866.8 226.533 867.067 225.867 858.133 212.4C837.733 181.6 811.6 162.8 775.067 152.667C770.4 151.333 766.667 149.867 766.667 149.333C766.667 147.733 786 151.733 800 156.133ZM1156.13 165.6C1167.6 188.133 1172 204.533 1172 223.867C1172 247.867 1163.73 270.4 1149.2 286C1141.07 294.533 1141.07 294.533 1144.67 295.467C1150.4 296.933 1169.33 289.867 1187.73 279.467C1192.27 276.8 1196 275.333 1196 276C1196 278.533 1182 291.733 1174.93 295.867C1171.07 298.133 1164.27 301.067 1159.87 302.267L1152 304.4L1145.87 300L1139.73 295.733L1136.13 298.4C1134.13 299.867 1128.93 302.8 1124.53 305.067C1109.33 312.667 1088 314.667 1088 308.4C1088 306.933 1087.33 306.667 1085.73 307.333C1082.53 308.667 1069.33 309.867 1069.33 308.8C1069.33 308.4 1073.07 306.133 1077.73 303.867C1082.27 301.6 1089.47 297.067 1093.6 293.867C1101.07 288 1101.2 288 1099.87 291.733C1099.2 293.733 1096.53 297.6 1093.87 300.267C1091.33 302.933 1089.73 305.467 1090.4 305.867C1092.53 307.067 1109.73 302.8 1118.27 298.8C1149.33 284.267 1167.07 252 1164.93 214C1164.13 199.2 1160.13 184 1152.4 165.467C1149.87 159.2 1147.47 153.067 1147.07 152C1145.73 147.6 1151.07 155.867 1156.13 165.6ZM1249.87 168.667C1265.47 200.533 1265.6 238.267 1250.27 264.4C1246.67 270.4 1241.33 276.133 1243.07 272C1248.93 257.733 1250.8 251.867 1252.8 239.467C1256.27 218 1254.27 200.933 1245.2 174.8C1241.47 164.133 1238.27 154.133 1237.87 152.667C1236.4 147.6 1245.07 159.067 1249.87 168.667ZM940.4 161.2C965.333 167.6 990.133 183.6 1004.53 202.667C1016.8 218.667 1023.47 233.2 1028.53 254.267C1031.73 267.467 1030.67 270.8 1026.8 260C1016.4 232 1006.27 214.667 991.2 199.2C976.667 184.267 953.733 170.8 927.467 161.867L914 157.2L922 157.867C926.4 158.267 934.667 159.733 940.4 161.2ZM894 165.333C916.667 173.467 932.133 182.933 949.067 199.2C967.2 216.667 979.733 235.6 992.533 264.667C1000.27 282.533 999.333 284.267 990.667 268C975.867 240.933 959.067 217.867 943.467 203.733C928.8 190.267 904.8 176.8 883.333 169.467C872.133 165.733 866.267 164.533 846 161.333C839.733 160.4 842.8 160.267 860 160.533C880.933 160.933 882.667 161.2 894 165.333ZM1292.8 211.333C1291.47 230.133 1284.53 247.333 1272.67 260.933C1267.47 266.933 1255.47 276 1252.8 276C1252.27 276 1254.8 272.533 1258.4 268.267C1274 250.267 1284.8 227.333 1290 200.933C1290.4 198.667 1291.33 197.6 1292.27 198.133C1293.2 198.8 1293.47 202.933 1292.8 211.333ZM1295.87 290C1311.33 293.733 1325.73 301.867 1338 313.867C1349.2 324.8 1353.47 330.667 1350.53 330.667C1349.73 330.667 1345.6 327.733 1341.47 324.133C1332.53 316.4 1317.6 307.333 1304.13 301.333C1294.27 297.067 1276.53 292 1271.07 292C1267.47 292 1266.93 289.867 1270.4 288.933C1275.47 287.6 1287.73 288.133 1295.87 290ZM1060 298.933C1060 302.133 1056.8 308.267 1054.13 310.533C1051.6 312.667 1051.6 312.267 1053.2 304.933C1054 301.867 1054.93 297.6 1055.33 295.333C1056.13 291.467 1056.27 291.467 1058.13 293.867C1059.2 295.333 1060 297.6 1060 298.933ZM826.667 550.667C836.533 552.133 847.333 553.867 850.667 554.533C854 555.2 862.267 556.667 869.2 557.867C893.067 562.133 915.867 567.867 924.267 571.733C933.333 575.867 943.2 585.333 947.2 594C950.533 600.933 949.6 609.467 945.333 611.733C938 615.6 895.6 610.4 858 600.8C816.533 590.4 794.267 588.267 776.533 593.2C766.8 596 743.333 606.533 737.2 611.067C732.533 614.4 727.467 613.6 726.933 609.6C726.267 604.8 732.4 593.467 740.667 584.4C748 576.267 763.2 564 772 559.2C774.533 557.867 777.6 556 778.667 555.2C780.533 553.867 791.2 550.4 798 548.933C803.333 547.733 808.933 548.133 826.667 550.667ZM1225.73 550.667C1237.33 554.533 1255.47 564.933 1262.53 571.867C1263.73 573.067 1266.53 575.467 1268.8 577.333C1278.67 585.6 1289.2 602.267 1289.33 609.6C1289.33 612.8 1288.8 613.333 1285.47 613.333C1283.47 613.333 1280.27 612.267 1278.53 610.933C1273.47 606.933 1257.6 599.333 1246 595.333C1237.47 592.267 1232.4 591.333 1220.53 590.933C1204.67 590.4 1198.53 591.333 1164.67 599.333C1099.6 614.8 1069.73 617.2 1067.07 606.933C1066.67 605.067 1067.33 600.533 1068.53 596.533C1072.93 582.533 1087.73 570.933 1107.33 566.133C1124.8 561.867 1168.13 553.733 1200 548.933C1208.67 547.6 1218.13 548.267 1225.73 550.667ZM877.467 613.467C887.333 615.067 898.8 619.733 910.133 626.4C920.133 632.4 922.133 633.867 925.733 638.267C929.6 642.667 926.267 643.067 920.4 638.8C912 632.667 897.867 625.467 886.8 621.6C877.6 618.4 874.8 618.133 857.333 618C827.2 618 805.6 624.533 782.933 640.4C776.667 644.933 771.867 647.467 771.333 646.667C770.933 646 773.867 642.133 777.867 638.267C786.267 630 807.467 618.8 821.333 615.333C837.733 611.067 859.333 610.4 877.467 613.467ZM1198.67 616.667C1215.47 622 1229.73 630 1239.2 639.067C1243.73 643.467 1246.67 647.2 1245.73 647.6C1244.93 647.867 1240.13 645.2 1235.07 641.6C1224.4 633.867 1205.73 624.667 1194.93 622C1158.93 612.8 1128.8 617.333 1101.6 635.867C1093.73 641.2 1089.33 642.667 1089.33 640C1089.33 637.733 1104.27 626.667 1114 622C1130.67 613.733 1140.27 611.867 1165.33 612.4C1184.93 612.933 1188.53 613.333 1198.67 616.667ZM1190 628.133C1208 633.867 1238.67 653.6 1238.67 659.333C1238.67 662.667 1236 662.933 1231.47 660.133L1227.07 657.333L1223.2 661.467C1219.2 665.733 1216.93 667.067 1206 672.533C1187.2 681.867 1162.93 683.067 1128.67 676.4C1116.93 674 1103.2 671.6 1098.13 671.067C1090.93 670.267 1088.53 669.333 1087.07 667.2C1085.33 664.533 1085.73 663.733 1092.27 656.667C1107.73 639.733 1130.8 626.4 1149.33 623.867C1161.2 622.267 1176.8 623.867 1190 628.133ZM878.133 626.8C893.6 631.6 907.067 640 921.467 654.133C930.267 662.667 931.6 665.733 927.867 669.467C925.867 671.467 923.467 672 916.4 672C911.333 672 898.667 673.867 888 676.133C846.933 684.8 816.8 680.667 795.467 663.333L788.267 657.467L784.8 660.133C781.067 663.067 778.667 662.533 778.667 658.667C778.667 655.467 795.2 642.4 808.267 635.333C823.6 627.067 835.2 624.133 853.467 624.133C865.733 624 871.067 624.667 878.133 626.8ZM966.933 633.333C974.4 645.333 979.733 664.267 981.467 685.067C984.133 715.333 980.267 764.267 974.8 769.733C974 770.533 973.067 770.933 972.8 770.533C972.4 770.133 972.8 760 973.467 748C974.267 735.867 974.667 713.333 974.267 698C973.733 672.667 973.333 668.933 970.133 658C968.133 651.467 964.8 642.133 962.533 637.2C958 626.667 958 626.267 960.933 626.933C962.267 627.2 964.933 630.133 966.933 633.333ZM971.2 804.267C968.933 814.667 968.8 826.267 970.8 831.867C973.067 838.133 970.533 840 966.133 835.6C963.067 832.533 962.667 831.067 962.667 822.267C962.667 812.4 964.8 803.6 968.8 797.6C972 792.667 973.067 795.333 971.2 804.267ZM938.667 813.2C938.667 813.867 936.8 819.2 934.4 824.933C930.933 833.467 930.267 837.333 930.133 846.267C930 856.267 930.267 857.467 934 862.933C936.933 866.933 940.667 869.867 946.667 872.933C951.333 875.333 955.733 878.133 956.267 879.333C959.733 885.333 943.6 881.733 934.667 874.4C932 872.267 928.267 867.733 926.533 864.267C920.267 852 923.2 826.8 932.133 815.467C934.8 812.133 938.667 810.8 938.667 813.2ZM1084.4 816C1089.6 822.133 1093.73 836.267 1093.6 847.6C1093.47 859.2 1090.27 867.067 1082.93 873.467C1073.87 881.467 1060 885.6 1060 880.267C1060 878.533 1062.53 876.533 1068.13 874C1079.6 868.533 1084.8 862.267 1086 852.8C1087.33 842.8 1085.87 834.533 1081.2 823.733C1079.07 818.933 1077.33 814.267 1077.33 813.467C1077.33 810.667 1081.07 812 1084.4 816ZM969.6 860.533C973.467 862.267 979.6 866.267 983.333 869.333C992 876.667 998.667 880 1006.67 880.933C1014.4 881.867 1021.2 878.8 1033.33 869.067C1043.2 861.067 1050.93 857.467 1058 857.333C1064.13 857.333 1066.67 859.2 1066.67 863.6C1066.67 866.4 1066.13 866.667 1060 866.667C1051.47 866.667 1045.87 869.067 1035.47 876.8C1024 885.6 1018.13 888 1008.27 888C998.133 888 993.067 886 981.467 877.467C969.467 868.667 967.2 867.6 958 866.8C951.733 866.133 949.867 865.467 949.6 863.6C948.267 856.8 958.133 855.333 969.6 860.533ZM992.933 956.8C1008.8 962.133 1009.47 962.133 1026 955.867C1034.8 952.4 1037.73 951.867 1043.2 952.667C1054.13 954 1066.4 958.8 1099.33 974C1116 981.733 1122.8 984 1129.6 984C1138.13 984 1140.4 985.333 1139.73 989.467C1139.47 992 1138.27 992.8 1133.33 993.733C1126.13 995.067 1093.47 995.467 1061.33 994.8C1043.6 994.4 1035.2 994.8 1026.67 996.533C1012.27 999.2 1004.93 999.2 990 996.4C980.4 994.533 972.933 994.267 953.333 994.667C919.733 995.6 888.4 995.067 882 993.733C877.6 992.8 876.533 992 876.267 989.067C875.867 985.333 878.267 984 886.667 984C892.8 984 900.133 981.867 910 977.333C951.067 958.267 966.133 952.533 976.4 952.133C977.867 952 985.2 954.133 992.933 956.8ZM957.333 1031.33C968.533 1035.47 984 1037.33 1007.33 1037.33C1034.13 1037.33 1044.27 1036 1060.27 1030.67C1073.33 1026.27 1077.33 1025.73 1077.33 1028.4C1077.33 1030.53 1070.4 1034.53 1060 1038.67C1037.73 1047.47 978.667 1047.73 957.733 1039.2C941.6 1032.53 936.667 1029.07 939.467 1026.27C940.267 1025.6 945.867 1027.07 957.333 1031.33Z" fill="black"/>
<path id="left-eyebrow" d="M796 557.467C783.467 560 764.267 571.733 750.667 585.333C744.933 591.067 737.867 600 739.067 600C739.333 600 744.8 597.6 750.933 594.667C782.533 579.867 800.533 579.2 849.067 590.8C882.133 598.667 915.467 604.4 934.667 605.6C942.133 606.133 943.067 603.867 938.533 595.333C933.2 585.2 928.667 581.733 911.333 574.533C907.2 572.8 856.133 563.2 835.333 560.133C810 556.533 803.067 556 796 557.467Z" fill="black"/>
<path id="right-eyebrow" d="M1198 557.467C1186.53 558.933 1150.67 564.933 1143.33 566.533C1140.4 567.2 1130.53 569.2 1121.33 570.933C1100 574.933 1088.27 580.4 1081.2 589.867C1076.4 596.267 1074 603.6 1075.87 605.733C1078.27 608.267 1113.87 602.533 1164.93 591.2C1197.6 584 1205.73 582.667 1216.4 582.667C1232.13 582.667 1250.13 587.067 1265.2 594.4C1272.67 598.133 1276 599.2 1276 598C1276 592.133 1242.4 564.933 1228.67 559.733C1221.33 556.933 1209.2 556 1198 557.467Z" fill="black"/>
<path id="right-eye" d="M1147.2 631.6C1141.6 632.667 1139.33 636.933 1139.33 646C1139.33 653.067 1140 655.067 1143.2 659.333C1147.2 664.533 1155.73 669.2 1161.33 669.333C1167.87 669.333 1175.2 666.4 1179.47 661.867C1186.53 654.667 1188.4 642.133 1183.6 635.467C1181.07 632 1157.73 629.467 1147.2 631.6ZM1173.07 638C1175.33 640.133 1175.6 647.333 1173.33 650C1171.2 652.533 1162.13 652.667 1160.13 650.133C1159.2 649.067 1158.4 646.267 1158.4 643.867C1158.13 636.133 1167.2 632.4 1173.07 638Z" fill="black"/>
<path id="right-eye-left" d="M1122.93 641.467C1113.33 646.8 1095.87 661.6 1097.47 663.2C1097.87 663.733 1103.6 664.667 1110.13 665.467C1116.67 666.267 1126.4 668.133 1131.87 669.467C1144.8 672.8 1146.4 672.667 1141.73 668.8C1139.6 667.067 1136.53 662.8 1134.8 659.333C1132.13 654 1131.73 651.6 1132.4 644.533C1132.67 639.867 1132.93 636 1132.8 636C1132.8 636 1128.27 638.4 1122.93 641.467Z" fill="black"/>
<path id="right-eye-right" d="M1193.07 644.533C1194 655.6 1190.27 663.467 1181.33 669.733C1178.13 672 1178.13 672 1180.93 672C1189.47 672 1204.4 666.133 1215.87 658.267L1221.87 654.267L1217.33 650.533C1213.73 647.467 1194.93 637.333 1192.93 637.333C1192.67 637.333 1192.67 640.533 1193.07 644.533Z" fill="black"/>
<path id="left-eye" d="M846 631.333C845.333 631.6 842.4 632.133 839.733 632.667C832.267 633.867 830.667 636.267 830.667 645.867C830.667 652.533 831.333 654.933 833.867 658.533C838.133 664.4 841.067 666.267 848.267 668C859.067 670.8 871.867 664.667 876 654.667C878.133 649.6 877.067 636.267 874.533 634.533C869.733 631.467 851.733 629.467 846 631.333ZM865.733 639.067C868.933 642.8 868.133 647.867 863.733 651.067C856.933 656.133 847.333 649.467 850.133 641.6C852.533 634.667 860.8 633.333 865.733 639.067Z" fill="black"/>
<path id="left-eye-left" d="M814 641.733C802.667 647.867 796 652.4 796 654C796 655.6 807.6 663.333 814.4 666.267C820.4 668.8 831.733 672 835.067 672C836.8 672 836.267 670.933 832.8 668C825.6 661.6 822.133 653.333 823.067 644.533C823.467 640.533 823.467 637.333 822.933 637.333C822.4 637.333 818.4 639.333 814 641.733Z" fill="black"/>
<path id="left-eye-right" d="M884.133 640.933C886.933 648.133 883.2 659.6 875.733 667.467L871.733 671.733L878 670.533C881.467 669.867 886.4 668.8 889.2 668.133C891.867 667.467 897.6 666.533 902 666C906.4 665.6 912.267 664.933 915.067 664.533L920 663.733L917.333 660C912.533 653.2 889.2 637.333 884.133 637.333C883.2 637.333 883.2 638.533 884.133 640.933Z" fill="black"/>
<path id="mouth" d="M967.333 960.8C961.867 962.267 950 966.933 932 974.667C921.733 979.067 912.667 982.667 911.733 982.667C910.8 982.8 907.867 984 905.333 985.467L900.667 988.133L927.333 987.067C962.8 985.6 974.533 985.867 987.867 988.533C1002.53 991.333 1012 991.2 1034.13 988C1050.53 985.467 1054.53 985.333 1072.4 986.667C1096 988.267 1117.87 988.267 1114 986.667C1112.53 986.133 1100 980.8 1086 974.933C1046.13 958.133 1040.8 957.2 1024.67 964C1012.8 969.067 1004.4 969.2 992.933 964.533C984.933 961.2 972.667 959.467 967.333 960.8Z" fill="black"/>
<path id="ear-left" d="M609.867 598.4C603.733 602.933 600.267 609.2 597.867 620.667C594.8 634.8 596 658.667 600.8 680.667C616.8 754 632.667 809.2 644.933 834C654.933 854.133 666.667 864.267 680.533 864.533C692.533 864.667 692.267 865.733 686.8 830.667C684.667 817.067 680.4 790.4 677.467 771.333C669.2 718.8 669.733 720.8 661.067 702.667C635.6 649.067 621.2 627.2 609.467 624.667C604.933 623.733 604.4 622.8 606.933 620.267C609.733 617.467 616 618.533 621.867 622.667C631.333 629.467 641.2 644.133 656 673.6C660 681.467 663.333 687.733 663.467 687.6C664 687.067 656 643.067 653.067 630.133C649.6 614.667 645.2 607.2 635.333 600.133C626.267 593.467 617.467 592.933 609.867 598.4ZM628.933 655.467C629.333 656.667 628.4 666.133 626.8 676.533C625.333 686.8 623.467 699.733 622.8 705.067C621.467 715.733 620.933 716.8 618.533 715.333C616.4 713.867 617.867 682.267 620.667 670.667C624.533 654.533 626.933 650.267 628.933 655.467ZM662.4 722.267C662 725.067 660.667 731.2 659.333 735.867C655.733 749.6 657.467 756.533 670 778C674.533 785.733 676 792 673.333 792C671.333 792 658.8 775.867 655.333 768.667C647.333 752.533 648.133 736.667 657.867 718.8C660.8 713.2 663.2 714.933 662.4 722.267Z" fill="black"/>
<path id="ear-right" d="M1386 597.2C1376.27 601.867 1368 611.333 1365.47 620.667C1363.6 627.6 1353.33 682.667 1353.47 685.333C1353.47 686.4 1356.4 681.467 1360.13 674.133C1370.27 654 1382.53 634 1388.53 627.867C1395.47 620.8 1404.27 616.667 1408 618.667C1412.13 620.8 1411.2 623.6 1406.13 624.533C1395.6 626.533 1379.07 651.067 1359.2 694.4C1355.2 702.933 1351.2 710.933 1350.27 712.133C1348.4 714.267 1344.27 735.067 1340.13 763.333C1338.67 772.8 1334.67 799.2 1331.2 821.733C1324.27 866.667 1324.27 865.333 1332.8 865.333C1335.07 865.333 1340 864.4 1344 863.2C1359.73 858.533 1371.33 840.133 1384.67 798.667C1388.8 785.867 1393.07 772.933 1394 770C1396 764.667 1414.4 689.6 1417.2 676C1421.87 653.2 1421.33 622.933 1415.87 610.8C1409.47 596.267 1398.53 591.333 1386 597.2ZM1395.2 666.267C1398.53 682.267 1400.13 697.333 1399.2 704.8C1398.4 711.867 1396.8 715.867 1395.33 714.4C1394.93 714 1393.73 705.333 1392.67 695.2C1391.6 684.933 1389.87 671.867 1388.8 666C1387.47 658.133 1387.33 654.8 1388.4 653.6C1390.67 650.8 1392.67 654.4 1395.2 666.267ZM1359.33 720C1367.6 736.267 1368.4 752.267 1362 766.4C1358.67 773.733 1344.8 792 1342.53 792C1338.8 792 1342.53 781.467 1350.27 769.867C1360 755.6 1360.8 746.8 1354.8 727.333C1352.67 720.667 1351.2 714.933 1351.6 714.267C1353.2 711.733 1356.27 714 1359.33 720Z" fill="black"/>
<path id="neck" d="M749.867 1064C750.933 1076 753.333 1144 753.733 1170.13L754 1191.47L759.067 1201.6C766 1215.73 777.6 1230.67 794.4 1247.2C814.267 1266.67 823.6 1274.4 862.667 1302.8C896.133 1327.2 967.867 1371.6 995.2 1384.8L1008 1391.07L1020.8 1384.8C1031.2 1379.87 1058.93 1363.87 1095.07 1342.13C1118.4 1328 1170.93 1291.2 1192 1274.13C1228.4 1244.8 1251.33 1218.27 1260.27 1195.07C1263.87 1185.73 1264.13 1184.13 1263.33 1173.47C1262.53 1163.33 1263.6 1125.2 1266.13 1074.27C1266.67 1064.67 1266.53 1057.33 1265.87 1057.33C1265.2 1057.47 1262.13 1060.8 1258.93 1065.07C1255.87 1069.2 1251.33 1074.8 1248.93 1077.33C1246.67 1079.87 1239.47 1087.73 1233.2 1094.67C1207.73 1122.53 1162.13 1165.73 1139.33 1183.47C1114.13 1202.93 1092.27 1212.67 1061.2 1218C1043.33 1221.07 1009.07 1222.67 986.667 1221.33C922.4 1217.47 896 1204 828.933 1141.07C810.533 1123.73 769.467 1080.4 758.533 1066.53C748.667 1054.13 749.067 1054.27 749.867 1064Z" fill="black"/>
<path id="collar-left" d="M740.933 1146.8C734.4 1150.67 729.067 1164.53 723.467 1192.67C716.4 1228.13 712 1265.73 712 1292C712 1308.53 715.333 1349.87 717.467 1359.33C721.067 1375.47 747.467 1435.87 769.2 1477.87C786.8 1512.13 812.4 1555.2 814.533 1554.4C815.6 1554 824.667 1543.07 857.067 1503.33C902.267 1448 944.933 1405.07 967.867 1392C972.267 1389.47 976 1386.93 976 1386.4C976 1385.87 973.2 1383.87 969.733 1381.87C953.867 1372.93 904.533 1342.53 890 1332.93C815.2 1282.93 771.2 1243.6 753.467 1210.53C744.933 1194.67 743.467 1187.73 743.867 1164.93C744 1154.13 744 1145.33 743.733 1145.33C743.467 1145.33 742.267 1146 740.933 1146.8Z" fill="black"/>
<path id="collar-right" d="M1272.67 1167.07C1272.67 1191.6 1271.47 1196.8 1262.27 1212.27C1246 1239.33 1221.6 1264 1180 1295.2C1143.73 1322.27 1095.87 1353.73 1056.93 1375.87C1038 1386.67 1037.87 1386.93 1049.33 1392.67C1068 1402.13 1112.13 1446 1152 1494.67C1179.2 1528 1201.87 1554.67 1202.8 1554.67C1203.47 1554.67 1211.2 1542.53 1220 1527.6C1244.93 1485.87 1270.4 1433.87 1290 1384.8C1302 1354.67 1303.07 1347.2 1303.2 1293.33C1303.33 1255.47 1303.07 1251.07 1299.6 1229.07C1292.67 1183.6 1285.2 1157.07 1277.07 1148.27C1275.47 1146.67 1273.87 1145.33 1273.47 1145.33C1273.07 1145.33 1272.67 1155.07 1272.67 1167.07Z" fill="black"/>
<path id="Vector" d="M701.2 1210.53C696.4 1214.93 687.067 1224.67 680.533 1232.27C674 1239.73 666.933 1248 664.667 1250.53C648.8 1268.8 632.267 1285.87 617.067 1299.6C607.333 1308.4 595.2 1320.67 590.267 1326.8C577.6 1342.4 504 1454.53 504 1458.27C504 1459.73 518.8 1468.27 558.933 1489.87C587.867 1505.6 591.6 1508 590 1510.53C589.067 1512.27 567.6 1527.33 523.333 1557.33C505.6 1569.47 488.933 1580.93 486.533 1582.93L482 1586.4L485.867 1597.6C488 1603.6 508.267 1659.6 530.933 1722C553.733 1784.27 575.6 1844.8 579.733 1856.27L587.333 1877.33H692.4H797.333V1874.27C797.333 1872.67 795.867 1864.13 794 1855.33C762.267 1703.2 715.733 1439.07 707.333 1364C700.533 1302.67 701.733 1255.07 711.467 1206.27C711.867 1204.27 711.733 1202.67 711.067 1202.67C710.533 1202.67 706 1206.27 701.2 1210.53Z" fill="black"/>
<path id="Vector_2" d="M1306.27 1212.27C1311.2 1238.4 1312.27 1249.07 1312.93 1280.4C1313.73 1313.73 1312.4 1340 1308.67 1370C1299.87 1438.67 1273.07 1598.27 1253.33 1699.33C1250.53 1714 1245.07 1742.13 1241.33 1762C1237.6 1781.73 1233.07 1805.2 1231.33 1814C1229.6 1822.8 1226.27 1839.6 1224 1851.33C1221.73 1863.07 1219.6 1873.73 1219.2 1875.07C1218.53 1877.2 1223.87 1877.33 1324 1877.07L1429.6 1876.67L1441.33 1844.67C1447.87 1827.07 1461.87 1788.4 1472.67 1758.67C1483.47 1728.93 1496.13 1693.87 1500.93 1680.67C1505.73 1667.47 1512.27 1649.47 1515.33 1640.67C1518.53 1631.87 1524 1616.13 1527.73 1605.73C1533.73 1588.93 1534.27 1586.53 1532.53 1584.8C1531.47 1583.6 1518.4 1574.53 1503.6 1564.53C1444.8 1524.53 1426.67 1511.47 1426.67 1508.8C1426.67 1507.87 1441.2 1499.07 1459.07 1489.33C1497.73 1468 1511.87 1460 1512.8 1458.53C1513.07 1458 1506.93 1447.47 1499.07 1435.33C1491.2 1423.2 1481.73 1408.67 1478 1402.93C1458.13 1371.87 1434.67 1336.93 1428.67 1329.33C1424.8 1324.53 1413.47 1312.8 1403.33 1303.33C1379.2 1280.67 1364 1264.93 1344.27 1241.87C1329.2 1224.27 1307.73 1202.67 1305.47 1202.67C1304.93 1202.67 1305.2 1207.07 1306.27 1212.27Z" fill="black"/>
<path id="shirt-left" d="M571.2 1333.2C570.533 1333.87 561.867 1337.73 552 1341.73C542.133 1345.87 519.067 1355.6 500.667 1363.33C482.4 1371.2 454.8 1382.93 439.333 1389.33C424 1395.73 403.6 1404.4 394 1408.67C361.6 1422.93 303.467 1446.93 262.8 1462.8C219.6 1479.73 215.2 1481.6 166.267 1504.27C123.333 1524.13 119.6 1526.4 110.667 1538.27C101.867 1549.87 96.2667 1561.33 89.4667 1582.13C80.8 1608.53 60.1333 1691.33 46.8 1752.67C35.8667 1803.2 29.8667 1834.27 23.3333 1873.6L22.8 1877.33H300C452.533 1877.33 577.333 1876.93 577.333 1876.27C577.333 1875.73 576 1872 574.533 1868C568.4 1852.13 524.133 1731.73 504.4 1677.33C471.6 1586.67 471.333 1586.13 475.333 1580.4C476.4 1578.93 495.733 1565.07 518.267 1549.6C540.933 1534.27 563.067 1519.07 567.733 1515.87L576 1510.13L572.4 1508C570.267 1506.8 554.533 1498.13 537.333 1488.8C501.067 1469.2 493.333 1464 493.333 1459.47C493.333 1456 516 1419.6 550.4 1368.27C563.2 1349.07 573.467 1333.07 573.067 1332.67C572.8 1332.27 571.867 1332.53 571.2 1333.2Z" fill="black"/>
<path id="shirt-right" d="M1442.93 1333.07C1443.2 1333.6 1450.8 1345.07 1460 1358.67C1469.07 1372.27 1480.67 1389.6 1485.6 1397.33C1490.53 1405.07 1498 1416.67 1502.27 1423.2C1517.07 1446.13 1524 1457.73 1524 1460.27C1524 1463.33 1517.33 1467.6 1485.2 1485.47C1471.73 1492.93 1456.53 1501.47 1451.33 1504.27C1446.27 1507.07 1441.87 1509.6 1441.6 1509.87C1441.07 1510.53 1467.2 1528.8 1504.67 1553.87C1543.2 1579.73 1545.47 1582 1542.93 1590.93C1541.2 1596.53 1529.47 1630 1518.27 1660.67C1513.47 1673.87 1502.67 1703.87 1494.27 1727.33C1485.73 1750.8 1476.13 1777.2 1472.93 1786C1456.4 1830.67 1440 1875.87 1440 1876.53C1440 1876.93 1564.53 1877.33 1716.67 1877.33C1974.13 1877.33 1993.33 1877.2 1993.33 1875.07C1993.33 1871.2 1984.13 1819.33 1978.53 1792.4C1971.47 1757.73 1961.07 1712.53 1947.2 1656C1926.4 1571.47 1918.4 1550.27 1900.67 1532.53C1893.73 1525.47 1889.6 1522.8 1871.33 1514C1842.13 1499.87 1795.6 1478.93 1778.67 1472.27C1697.87 1440.53 1681.73 1433.87 1601.33 1399.73C1569.47 1386.13 1523.2 1366.4 1498.67 1356C1474.13 1345.6 1451.47 1335.87 1448.27 1334.53C1445.07 1333.2 1442.67 1332.53 1442.93 1333.07Z" fill="black"/>
<path id="Vector_3" d="M1030 1390.4L1026 1392.67L1031.87 1393.07C1038.53 1393.6 1039.73 1392.93 1037.33 1390C1035.33 1387.6 1034.93 1387.6 1030 1390.4Z" fill="black"/>
<path id="Vector_4" d="M978.667 1391.47C977.067 1393.2 977.6 1393.47 983.2 1393.2C988.8 1392.8 989.333 1392.67 987.2 1391.07C984 1388.8 980.667 1388.93 978.667 1391.47Z" fill="black"/>
<path id="Vector_5" d="M721.733 1402.67C722.133 1404.53 724.133 1415.87 726 1428C738.267 1504 762.133 1642.53 769.333 1679.33C771.467 1690.27 776.533 1716.13 780.533 1736.67C784.533 1757.2 792.133 1795.87 797.333 1822.67C802.533 1849.47 807.2 1872.67 807.6 1874.27L808.267 1877.33H854.667H901.067L901.867 1862.4C909.067 1740 920.667 1674.93 951.467 1586.53C957.6 1568.8 957.733 1568.13 955.733 1563.87C954.533 1561.33 950.4 1552.4 946.533 1544C937.867 1524.93 931.2 1512.4 921.2 1495.73C913.733 1483.47 903.2 1466.67 902.133 1465.73C901.733 1465.2 875.6 1495.47 855.733 1519.47C849.733 1526.93 838.133 1540.8 830.133 1550.53C819.067 1564 814.933 1568 812.933 1567.73C805.467 1566.67 755.867 1477.07 729.733 1417.33C722.267 1400.27 720.4 1396.8 721.733 1402.67Z" fill="black"/>
<path id="Vector_6" d="M1290.67 1407.6C1288.93 1411.87 1285.87 1418.93 1284 1423.33C1282 1427.73 1278.13 1436.4 1275.33 1442.67C1257.6 1482.4 1210.93 1565.2 1204.8 1567.47C1201.07 1568.93 1200.93 1568.8 1156 1514C1123.6 1474.53 1115.73 1465.33 1114.53 1465.33C1113.87 1465.33 1112.53 1467.07 1111.47 1469.07C1110.4 1471.2 1106.53 1477.33 1102.93 1482.8C1096.53 1492.53 1080 1520.67 1080 1521.73C1080 1522.13 1076.53 1529.87 1072.13 1538.8C1067.87 1547.87 1063.07 1558.4 1061.47 1562.13L1058.53 1568.93L1065.07 1586.8C1092.67 1662 1107.2 1737.33 1113.33 1837.33C1114 1849.47 1115.07 1863.33 1115.47 1868.4L1116.27 1877.33H1162.67H1209.07L1209.87 1872.27C1210.4 1869.6 1215.87 1841.6 1222 1810C1228.27 1778.4 1235.73 1739.73 1238.67 1724C1241.73 1708.27 1246.27 1684.27 1248.8 1670.67C1254.8 1638.8 1261.2 1603.47 1269.33 1555.33C1272.93 1534 1278.67 1500.53 1282 1480.8C1288.93 1439.87 1294.8 1401.07 1294.13 1400.4C1293.87 1400.13 1292.27 1403.33 1290.67 1407.6Z" fill="black"/>
<path id="tie-up" d="M981.333 1402.27C966.133 1403.73 965.333 1404 955.6 1412.27C941.067 1424.53 909.333 1456.4 909.333 1458.67C909.333 1459.73 912.933 1466 917.333 1472.67C933.067 1496 952.4 1531.47 961.333 1553.6C963.067 1557.87 965.067 1561.33 965.733 1561.33C966.533 1561.33 971.067 1560.13 975.867 1558.67C995.867 1552.8 1022.67 1552.8 1041.73 1558.67C1046.8 1560.27 1051.2 1561.33 1051.47 1561.07C1051.73 1560.8 1055.87 1551.87 1060.67 1541.33C1074.13 1511.73 1088.8 1485.73 1104.13 1463.73C1105.47 1461.73 1106.67 1459.2 1106.67 1458.13C1106.67 1455.47 1077.33 1425.73 1062.4 1413.47L1050.8 1403.87L1039.07 1402.67C1028 1401.47 991.6 1401.2 981.333 1402.27Z" fill="black"/>
<path id="tie-bottom" d="M1000 1563.6C992.267 1564.13 975.6 1567.73 970.533 1569.87C966.933 1571.33 965.867 1573.6 958.533 1594.8C935.6 1661.07 922.667 1722.53 916 1797.2C914.133 1817.87 910.667 1866.13 910.667 1872.27V1877.33H1008.67H1106.67V1874.27C1106.67 1869.73 1102.8 1817.47 1101.33 1800.13C1094.4 1724.4 1081.47 1662.13 1059.07 1598C1055.73 1588.4 1052.53 1578.67 1051.73 1576.27C1050.8 1573.07 1049.2 1571.2 1045.87 1569.87C1035.2 1565.47 1013.73 1562.53 1000 1563.6Z" fill="black"/>
</g>
</svg>
